<?xml version="1.0" encoding="UTF-8" standalone="no"?>
<!DOCTYPE svg PUBLIC "-//W3C//DTD SVG 1.1//EN"
 "http://www.w3.org/Graphics/SVG/1.1/DTD/svg11.dtd">
<!-- Generated by graphviz version 2.43.0 (0)
 -->
<!-- Title: %3 Pages: 1 -->
<svg width="395pt" height="227pt"
 viewBox="0.00 0.00 394.54 226.69" xmlns="http://www.w3.org/2000/svg" xmlns:xlink="http://www.w3.org/1999/xlink">
<g id="graph0" class="graph" transform="scale(1 1) rotate(0) translate(4 222.69)">
<title>%3</title>
<polygon fill="white" stroke="transparent" points="-4,4 -4,-222.69 390.54,-222.69 390.54,4 -4,4"/>
<!-- Cart Position -->
<g id="node1" class="node">
<title>Cart Position</title>
<polygon fill="lightgray" stroke="black" points="77,-218.69 0,-218.69 0,-200.69 77,-200.69 77,-218.69"/>
<text text-anchor="middle" x="38.5" y="-207.49" font-family="Times,serif" font-size="9.00">Cart Position</text>
</g>
<!-- Push Left -->
<g id="node5" class="node">
<title>Push Left</title>
<ellipse fill="lightblue" stroke="black" cx="111.5" cy="-48.08" rx="42.35" ry="42.35"/>
<text text-anchor="middle" x="111.5" y="-45.88" font-family="Times,serif" font-size="9.00">Push Left</text>
</g>
<!-- Cart Position&#45;&gt;Push Left -->
<g id="edge1" class="edge">
<title>Cart Position&#45;&gt;Push Left</title>
<path fill="none" stroke="red" stroke-width="0.15" stroke-dasharray="1,5" d="M31.81,-200.41C21.12,-186.1 2.46,-156.01 13.5,-132.17 24.49,-108.44 45.97,-89.01 66.03,-74.93"/>
<polygon fill="red" stroke="red" stroke-width="0.15" points="68.16,-77.72 74.5,-69.23 64.25,-71.91 68.16,-77.72"/>
</g>
<!-- Push Right -->
<g id="node6" class="node">
<title>Push Right</title>
<ellipse fill="lightblue" stroke="black" cx="265.5" cy="-48.08" rx="48.17" ry="48.17"/>
<text text-anchor="middle" x="265.5" y="-45.88" font-family="Times,serif" font-size="9.00">Push Right</text>
</g>
<!-- Cart Position&#45;&gt;Push Right -->
<g id="edge2" class="edge">
<title>Cart Position&#45;&gt;Push Right</title>
<path fill="none" stroke="red" stroke-width="0.11" d="M77.26,-206.5C162.02,-201.3 357.91,-186.99 377.5,-164.69 405.94,-132.32 359.49,-97.01 318.05,-74.04"/>
<polygon fill="red" stroke="red" stroke-width="0.11" points="319.5,-70.85 309.04,-69.19 316.19,-77.01 319.5,-70.85"/>
</g>
<!-- 5 -->
<g id="node7" class="node">
<title>5</title>
<ellipse fill="white" stroke="black" cx="38.5" cy="-148.43" rx="16.03" ry="16.03"/>
<text text-anchor="middle" x="38.5" y="-146.23" font-family="Times,serif" font-size="9.00">5</text>
</g>
<!-- Cart Position&#45;&gt;5 -->
<g id="edge9" class="edge">
<title>Cart Position&#45;&gt;5</title>
<path fill="none" stroke="green" stroke-width="0.22" d="M38.5,-200.45C38.5,-193.87 38.5,-184.27 38.5,-175.17"/>
<polygon fill="green" stroke="green" stroke-width="0.22" points="42,-174.92 38.5,-164.92 35,-174.92 42,-174.92"/>
</g>
<!-- Cart Velocity -->
<g id="node2" class="node">
<title>Cart Velocity</title>
<polygon fill="lightgray" stroke="black" points="150,-157.43 73,-157.43 73,-139.43 150,-139.43 150,-157.43"/>
<text text-anchor="middle" x="111.5" y="-146.23" font-family="Times,serif" font-size="9.00">Cart Velocity</text>
</g>
<!-- Cart Velocity&#45;&gt;Push Left -->
<g id="edge3" class="edge">
<title>Cart Velocity&#45;&gt;Push Left</title>
<path fill="none" stroke="green" stroke-width="0.19" d="M111.5,-139.38C111.5,-130.66 111.5,-115.96 111.5,-100.93"/>
<polygon fill="green" stroke="green" stroke-width="0.19" points="115,-100.54 111.5,-90.54 108,-100.54 115,-100.54"/>
</g>
<!-- Cart Velocity&#45;&gt;Push Right -->
<g id="edge4" class="edge">
<title>Cart Velocity&#45;&gt;Push Right</title>
<path fill="none" stroke="green" stroke-width="0.52" d="M124.1,-139.38C144.15,-126.58 184.35,-100.91 216.78,-80.2"/>
<polygon fill="green" stroke="green" stroke-width="0.52" points="218.72,-83.11 225.26,-74.78 214.95,-77.21 218.72,-83.11"/>
</g>
<!-- Pole Angle -->
<g id="node3" class="node">
<title>Pole Angle</title>
<polygon fill="lightgray" stroke="black" points="234.5,-157.43 168.5,-157.43 168.5,-139.43 234.5,-139.43 234.5,-157.43"/>
<text text-anchor="middle" x="201.5" y="-146.23" font-family="Times,serif" font-size="9.00">Pole Angle</text>
</g>
<!-- Pole Angle&#45;&gt;Push Left -->
<g id="edge5" class="edge">
<title>Pole Angle&#45;&gt;Push Left</title>
<path fill="none" stroke="red" stroke-width="0.35" d="M194.13,-139.38C183.76,-128.04 164.14,-106.6 146.62,-87.46"/>
<polygon fill="red" stroke="red" stroke-width="0.35" points="149.12,-85 139.78,-79.99 143.95,-89.73 149.12,-85"/>
</g>
<!-- Pole Angle&#45;&gt;Push Right -->
<g id="edge6" class="edge">
<title>Pole Angle&#45;&gt;Push Right</title>
<path fill="none" stroke="green" stroke-width="0.59" d="M206.74,-139.38C212.84,-130.01 223.43,-113.73 233.96,-97.55"/>
<polygon fill="green" stroke="green" stroke-width="0.59" points="236.91,-99.43 239.43,-89.14 231.05,-95.61 236.91,-99.43"/>
</g>
<!-- Pole Angular Velocity -->
<g id="node4" class="node">
<title>Pole Angular Velocity</title>
<polygon fill="lightgray" stroke="black" points="368.5,-157.43 252.5,-157.43 252.5,-139.43 368.5,-139.43 368.5,-157.43"/>
<text text-anchor="middle" x="310.5" y="-146.23" font-family="Times,serif" font-size="9.00">Pole Angular Velocity</text>
</g>
<!-- Pole Angular Velocity&#45;&gt;Push Left -->
<g id="edge7" class="edge">
<title>Pole Angular Velocity&#45;&gt;Push Left</title>
<path fill="none" stroke="red" stroke-width="0.4" d="M294.21,-139.38C264.84,-124.86 201.96,-93.79 158.23,-72.18"/>
<polygon fill="red" stroke="red" stroke-width="0.4" points="159.72,-69.01 149.21,-67.72 156.62,-75.29 159.72,-69.01"/>
</g>
<!-- Pole Angular Velocity&#45;&gt;Push Right -->
<g id="edge8" class="edge">
<title>Pole Angular Velocity&#45;&gt;Push Right</title>
<path fill="none" stroke="green" stroke-width="0.28" d="M306.82,-139.38C302.89,-130.8 296.31,-116.42 289.55,-101.64"/>
<polygon fill="green" stroke="green" stroke-width="0.28" points="292.68,-100.06 285.33,-92.43 286.31,-102.98 292.68,-100.06"/>
</g>
<!-- 5&#45;&gt;Push Left -->
<g id="edge10" class="edge">
<title>5&#45;&gt;Push Left</title>
<path fill="none" stroke="red" stroke-width="0.13" d="M47.75,-134.97C56.04,-123.79 68.71,-106.73 80.57,-90.75"/>
<polygon fill="red" stroke="red" stroke-width="0.13" points="83.52,-92.65 86.67,-82.53 77.9,-88.47 83.52,-92.65"/>
</g>
</g>
</svg>
